<svg version="1.1" xmlns="http://www.w3.org/2000/svg" xmlns:xlink="http://www.w3.org/1999/xlink" width="32" height="32" fill="#fff" viewBox="30, 30, 340,340"><path d="M203.600 59.974 C 199.368 61.266,195.718 64.608,192.008 70.586 C 190.497 73.023,187.878 76.902,186.189 79.208 C 184.500 81.514,182.114 85.110,180.886 87.200 C 177.601 92.794,168.253 106.836,164.642 111.600 C 160.040 117.672,159.256 122.200,161.901 127.416 C 165.118 133.759,168.876 136.366,190.759 147.440 C 202.949 153.608,211.942 152.776,224.525 144.316 C 226.468 143.009,230.340 140.755,233.129 139.306 C 250.181 130.448,252.664 121.744,242.486 106.504 C 241.199 104.577,238.874 100.840,237.320 98.200 C 235.766 95.560,233.044 91.473,231.271 89.119 C 229.498 86.764,226.504 82.534,224.616 79.719 C 210.857 59.195,209.703 58.111,203.600 59.974 M117.000 132.998 C 111.901 134.134,101.647 138.922,95.200 143.177 C 93.110 144.556,89.150 146.816,86.400 148.198 C 83.650 149.581,78.608 152.576,75.194 154.856 C 71.781 157.135,67.551 159.897,65.794 160.993 C 60.159 164.510,56.425 168.995,54.049 175.103 L 53.000 177.800 52.877 202.400 C 52.737 230.199,52.720 229.996,55.739 235.783 C 57.988 240.091,62.153 244.223,67.427 247.375 C 69.612 248.681,73.151 250.990,75.292 252.507 C 77.432 254.023,82.022 256.743,85.492 258.552 C 88.961 260.361,93.600 263.024,95.800 264.472 C 102.516 268.890,112.729 273.469,118.007 274.430 C 123.515 275.432,133.057 271.626,143.200 264.383 C 145.290 262.890,149.880 260.160,153.400 258.315 C 156.920 256.471,161.198 254.018,162.907 252.864 C 164.615 251.710,168.665 249.365,171.907 247.651 C 175.148 245.938,179.330 243.510,181.200 242.256 C 183.070 241.003,187.210 238.632,190.400 236.988 C 193.639 235.318,198.143 232.567,200.600 230.755 C 203.383 228.704,206.935 226.577,210.265 224.968 C 213.161 223.569,217.230 221.443,219.306 220.244 C 221.383 219.045,225.842 216.682,229.216 214.992 C 232.589 213.303,236.930 210.858,238.861 209.559 C 240.793 208.260,244.854 205.881,247.887 204.271 C 250.919 202.661,255.107 200.212,257.194 198.829 C 259.281 197.445,262.791 195.413,264.994 194.313 C 270.166 191.731,272.708 190.187,277.938 186.450 C 293.213 175.534,301.373 173.477,307.513 178.997 C 312.219 183.229,312.964 186.495,312.984 203.000 C 313.010 223.910,310.786 229.458,301.719 231.106 C 296.685 232.021,295.771 231.648,278.000 221.427 C 270.878 217.331,266.679 217.453,256.407 222.053 C 239.159 229.778,230.998 240.113,237.464 246.041 C 239.649 248.044,252.643 256.314,257.400 258.729 C 260.040 260.069,264.360 262.531,267.000 264.200 C 278.548 271.500,287.716 274.900,293.400 273.992 C 297.858 273.279,307.087 269.067,314.600 264.316 C 317.240 262.647,321.740 260.070,324.600 258.591 C 327.460 257.111,331.960 254.517,334.600 252.825 C 337.240 251.134,340.840 248.870,342.600 247.794 C 353.886 240.894,355.026 236.333,354.682 199.430 C 354.392 168.248,353.591 165.956,340.200 157.996 C 338.220 156.819,335.250 154.952,333.600 153.846 C 331.950 152.740,327.990 150.469,324.800 148.800 C 321.610 147.130,316.930 144.430,314.400 142.800 C 305.605 137.132,295.938 133.200,290.797 133.200 C 285.814 133.200,276.180 137.191,266.976 143.067 C 264.569 144.603,260.264 147.082,257.409 148.574 C 254.554 150.066,250.324 152.504,248.009 153.992 C 245.694 155.479,242.136 157.530,240.103 158.551 C 235.364 160.928,232.121 162.920,227.946 166.018 C 226.017 167.449,221.635 169.974,217.600 171.979 C 213.750 173.892,209.379 176.211,207.887 177.132 C 206.395 178.053,202.795 179.999,199.887 181.455 C 196.979 182.911,192.710 185.313,190.400 186.793 C 188.090 188.272,183.967 190.618,181.238 192.005 C 178.508 193.392,174.168 195.919,171.592 197.621 C 169.017 199.323,165.479 201.540,163.731 202.548 C 161.983 203.557,158.239 206.007,155.410 207.993 C 152.581 209.979,148.091 212.710,145.433 214.061 C 142.775 215.412,138.710 217.722,136.400 219.196 C 116.221 232.065,105.983 233.947,98.763 226.114 C 94.903 221.926,94.242 218.595,94.255 203.400 C 94.269 185.978,95.738 181.668,102.886 178.068 C 109.557 174.707,111.605 175.118,128.159 183.142 C 142.813 190.245,142.260 190.220,154.113 184.326 C 176.927 172.982,181.349 165.886,169.996 158.836 C 168.788 158.086,165.841 156.213,163.446 154.675 C 161.051 153.137,156.392 150.468,153.093 148.744 C 149.794 147.020,145.034 144.154,142.515 142.374 C 134.729 136.872,123.279 131.906,119.600 132.435 C 119.490 132.451,118.320 132.704,117.000 132.998 M201.000 256.168 C 195.210 257.298,191.015 259.279,184.664 263.882 C 182.429 265.502,177.720 268.295,174.200 270.088 C 158.969 277.846,156.663 284.958,165.507 296.896 C 168.791 301.329,179.153 316.982,181.595 321.200 C 182.550 322.850,184.272 325.460,185.421 327.000 C 187.648 329.985,190.907 334.860,193.200 338.636 C 197.555 345.807,205.301 349.499,210.087 346.684 C 212.703 345.145,213.049 344.686,225.850 325.800 C 227.937 322.720,230.874 318.609,232.377 316.664 C 233.879 314.719,236.226 311.157,237.593 308.749 C 238.960 306.340,241.354 302.442,242.914 300.085 C 252.384 285.775,249.640 276.371,233.615 268.223 C 230.721 266.751,226.908 264.563,225.140 263.359 C 216.035 257.159,208.073 254.788,201.000 256.168"></path></svg>
