<svg id="svg" version="1.1" xmlns="http://www.w3.org/2000/svg" xmlns:xlink="http://www.w3.org/1999/xlink" width="32" height="32" fill="#fff" viewBox="30, 30, 340,340"><path d="M245.200 84.441 C 238.362 84.910,236.596 85.387,227.200 89.303 C 223.790 90.724,219.020 92.655,216.600 93.594 C 204.048 98.463,198.245 102.562,188.299 113.586 C 175.251 128.048,172.252 135.081,166.392 164.968 C 164.825 172.961,163.820 176.140,160.318 184.178 C 149.354 209.342,149.326 213.986,160.083 222.264 C 164.982 226.033,167.116 230.242,167.970 237.813 C 169.058 247.467,169.301 249.184,170.021 252.297 C 172.132 261.422,176.020 264.648,187.233 266.578 C 200.578 268.875,202.132 271.115,202.784 289.000 C 203.474 307.920,204.949 309.619,221.400 310.448 C 233.572 311.062,302.493 310.581,306.413 309.855 C 317.575 307.788,321.164 300.339,316.847 288.200 C 306.439 258.927,306.431 258.383,316.010 230.735 C 317.738 225.750,320.071 218.316,321.195 214.217 C 322.320 210.117,324.408 203.592,325.836 199.717 C 332.762 180.924,334.162 169.803,331.670 153.400 C 327.253 124.334,311.238 102.508,288.592 94.690 C 285.736 93.704,280.594 91.625,277.165 90.068 C 266.771 85.351,257.000 83.631,245.200 84.441 M141.200 85.223 C 138.206 85.665,132.991 87.353,128.623 89.292 C 126.631 90.177,121.940 92.187,118.200 93.759 C 106.765 98.566,104.426 100.242,93.897 111.182 C 86.067 119.316,84.635 121.350,77.676 134.226 C 72.595 143.630,70.892 149.119,69.001 162.200 C 67.493 172.626,64.668 182.588,59.017 197.400 C 53.791 211.098,54.153 214.050,62.034 222.015 C 68.869 228.922,69.344 230.166,70.415 243.978 C 71.461 257.451,76.599 263.723,88.622 266.203 C 102.950 269.159,104.347 271.071,105.582 289.400 C 106.765 306.968,109.962 309.910,128.600 310.584 C 149.386 311.336,154.980 307.170,155.499 290.554 C 155.980 275.183,153.906 272.171,139.709 267.625 C 127.404 263.686,122.607 257.096,121.201 242.200 C 120.289 232.536,119.217 229.570,114.815 224.527 C 106.482 214.982,105.956 214.062,105.697 208.600 C 105.493 204.295,106.254 201.914,111.564 190.237 C 116.872 178.567,118.232 173.649,119.815 160.400 C 122.154 140.821,130.789 125.249,150.758 104.600 C 159.619 95.437,160.936 93.695,160.973 91.082 C 161.039 86.357,151.882 83.644,141.200 85.223"></path></svg>
