<svg version="1.1" xmlns="http://www.w3.org/2000/svg" xmlns:xlink="http://www.w3.org/1999/xlink" width="32" height="32" fill="#fff" viewBox="40, 40, 320,320"><path d="M250.800 67.550 C 244.192 69.781,235.986 74.065,230.453 78.173 C 228.334 79.746,224.980 82.141,223.000 83.496 C 221.020 84.850,217.960 87.250,216.200 88.828 C 214.440 90.407,211.470 92.882,209.600 94.328 C 203.825 98.794,199.830 102.522,187.472 114.978 C 176.030 126.510,172.977 129.975,170.007 134.800 C 169.263 136.010,167.106 139.070,165.215 141.600 C 161.541 146.516,160.563 147.973,156.033 155.284 C 148.725 167.080,151.755 172.009,166.800 172.796 C 178.381 173.402,229.305 173.728,234.000 173.226 C 255.034 170.978,260.633 168.306,270.634 155.744 C 275.023 150.231,278.094 149.519,282.054 153.096 C 290.299 160.545,286.012 176.612,274.149 182.716 C 262.261 188.834,251.570 190.261,220.858 189.826 C 153.496 188.872,135.936 188.934,126.600 190.161 C 123.960 190.508,117.798 191.238,112.908 191.783 C 99.397 193.289,95.968 194.515,90.792 199.691 C 84.580 205.903,83.248 214.171,87.199 221.998 C 93.618 234.715,102.231 242.759,108.968 242.330 C 112.981 242.074,114.593 240.162,117.001 232.800 C 120.303 222.705,126.698 216.405,134.347 215.711 C 140.367 215.165,142.697 218.118,143.591 227.424 C 145.196 244.134,148.593 251.337,158.924 259.936 C 166.356 266.121,168.707 267.665,175.192 270.616 C 178.167 271.970,181.901 273.735,183.492 274.539 C 187.784 276.710,191.518 278.098,198.200 280.006 C 201.500 280.949,206.450 282.702,209.200 283.902 C 218.642 288.022,220.738 288.567,224.903 287.988 C 231.571 287.062,234.769 283.356,239.217 271.400 C 240.362 268.320,242.258 263.768,243.430 261.284 C 244.601 258.800,246.480 254.120,247.605 250.884 C 248.730 247.648,251.346 241.490,253.417 237.200 C 255.488 232.910,257.744 227.780,258.431 225.800 C 262.400 214.348,268.896 208.662,280.600 206.397 C 304.662 201.740,306.090 201.188,313.639 193.639 C 324.923 182.355,325.681 170.909,316.424 151.600 C 314.473 147.530,312.129 142.490,311.216 140.400 C 310.303 138.310,308.511 134.800,307.234 132.600 C 305.957 130.400,303.651 126.151,302.110 123.157 C 299.174 117.455,291.011 104.874,285.818 98.049 C 284.142 95.846,281.345 91.596,279.602 88.604 C 268.546 69.618,261.004 64.105,250.800 67.550 M109.000 268.714 C 101.537 272.349,92.878 288.934,94.884 295.754 C 96.157 300.080,112.875 309.895,123.600 312.613 C 131.947 314.727,135.635 316.053,141.669 319.108 C 145.041 320.816,150.140 323.013,153.000 323.991 C 155.860 324.969,161.170 327.283,164.800 329.133 C 169.551 331.555,173.641 333.258,179.400 335.213 C 183.800 336.707,189.020 338.523,191.000 339.249 C 202.832 343.585,210.819 339.186,214.962 326.050 C 218.975 313.326,214.634 306.546,198.800 300.805 C 195.610 299.649,190.300 297.349,187.000 295.696 C 183.028 293.705,178.297 291.776,173.000 289.986 C 162.517 286.443,161.007 285.856,153.197 282.287 C 149.565 280.627,144.468 278.537,141.871 277.641 C 139.275 276.746,134.146 274.680,130.475 273.051 C 118.193 267.599,113.314 266.614,109.000 268.714"></path></svg>
