<svg version="1.1" xmlns="http://www.w3.org/2000/svg" xmlns:xlink="http://www.w3.org/1999/xlink" width="32" height="32" fill="#fff" viewBox="40, 40, 320,320"><path d="M164.800 74.234 C 151.217 76.017,135.866 82.011,130.200 87.742 C 127.179 90.799,121.339 99.535,118.960 104.557 C 114.741 113.461,113.007 136.848,115.122 156.314 C 116.303 167.191,117.037 170.514,121.189 183.800 C 121.877 186.000,123.326 190.898,124.409 194.685 C 126.587 202.299,127.587 204.722,131.374 211.556 C 132.790 214.110,135.190 218.912,136.708 222.226 C 138.227 225.540,140.735 230.490,142.283 233.226 C 143.830 235.962,145.831 239.665,146.730 241.454 C 148.465 244.913,151.064 248.557,154.820 252.800 C 163.893 263.051,164.507 269.324,156.269 267.614 C 152.987 266.933,150.547 265.552,143.800 260.561 C 127.252 248.317,122.689 246.009,119.856 248.453 C 113.284 254.122,125.446 273.855,147.000 292.495 C 155.380 299.742,156.593 300.508,166.174 304.599 C 168.580 305.626,172.135 307.263,174.074 308.237 C 180.496 311.462,188.117 313.372,203.337 315.572 C 218.269 317.730,219.165 318.276,216.528 323.625 C 210.018 336.832,239.431 338.060,267.264 325.744 C 278.398 320.817,287.648 309.882,290.562 298.200 C 293.632 285.893,294.080 268.187,291.679 254.000 C 289.540 241.360,289.271 240.219,286.213 230.800 C 284.606 225.850,282.483 219.280,281.495 216.200 C 279.579 210.227,278.218 207.102,275.088 201.481 C 274.010 199.545,271.917 194.934,270.437 191.234 C 268.957 187.534,266.731 182.728,265.491 180.553 C 260.311 171.468,259.221 165.875,262.107 163.186 C 264.531 160.927,267.610 161.758,274.000 166.395 C 275.870 167.753,279.415 170.115,281.878 171.645 C 284.341 173.175,287.943 175.816,289.882 177.513 C 291.822 179.211,294.307 181.309,295.405 182.175 C 296.502 183.041,298.849 185.246,300.620 187.075 C 304.535 191.118,306.033 191.481,308.706 189.030 C 310.171 187.686,310.200 187.602,310.200 184.730 L 310.200 181.800 304.631 170.650 C 298.700 158.776,296.305 155.107,288.800 146.400 C 286.998 144.310,283.763 140.530,281.612 138.000 C 276.407 131.881,274.832 130.333,268.000 124.626 C 259.307 117.364,259.985 117.834,245.116 108.775 C 243.363 107.707,239.305 105.898,235.716 104.584 C 232.242 103.312,226.770 101.044,223.556 99.543 C 216.629 96.309,212.543 95.145,203.400 93.801 C 185.736 91.204,183.422 89.215,189.264 81.646 C 193.820 75.742,181.573 72.031,164.800 74.234 M93.729 75.213 C 89.299 76.009,78.514 81.034,74.336 84.250 C 61.327 94.260,58.429 116.167,67.200 138.200 C 68.251 140.840,70.020 145.729,71.131 149.064 C 73.408 155.901,74.360 157.954,77.496 162.786 C 78.705 164.648,80.953 168.428,82.491 171.186 C 84.030 173.944,86.304 177.692,87.544 179.515 C 88.785 181.338,91.060 184.897,92.600 187.425 C 96.962 194.584,101.253 198.144,106.193 198.700 C 110.036 199.134,109.414 191.537,104.350 176.200 C 99.694 162.098,96.988 147.946,96.011 132.583 C 95.115 118.473,96.486 110.414,101.795 98.600 C 106.781 87.506,108.561 80.105,106.782 77.860 C 104.898 75.482,98.949 74.275,93.729 75.213 M178.000 116.416 C 188.923 118.140,203.539 128.340,214.086 141.600 C 215.748 143.690,218.413 146.825,220.009 148.568 C 223.627 152.519,231.700 164.783,235.565 172.200 C 237.170 175.280,239.480 179.330,240.698 181.200 C 243.658 185.743,244.778 188.018,247.147 194.298 C 248.246 197.211,250.067 201.409,251.193 203.625 C 255.182 211.475,256.261 215.204,258.999 230.600 C 262.151 248.325,261.691 264.721,257.827 272.347 C 251.012 285.795,228.999 279.709,215.336 260.600 C 213.763 258.400,210.873 254.800,208.913 252.600 C 202.201 245.063,197.742 238.695,194.208 231.600 C 192.947 229.070,190.471 224.610,188.705 221.688 C 186.787 218.517,184.508 213.977,183.047 210.421 C 179.197 201.049,178.533 200.355,171.735 198.599 C 162.685 196.261,156.545 190.151,153.248 180.200 C 149.411 168.622,149.865 141.792,154.037 133.527 C 161.453 118.835,167.222 114.716,178.000 116.416 M184.397 149.951 C 177.475 152.211,176.223 157.001,179.230 169.711 C 182.209 182.300,183.171 185.283,186.806 193.200 C 187.967 195.730,189.800 200.230,190.878 203.200 C 193.390 210.117,194.535 212.376,197.935 217.127 C 199.460 219.257,201.838 223.160,203.219 225.800 C 205.864 230.854,206.637 232.039,209.614 235.600 C 210.625 236.810,212.987 239.878,214.863 242.419 C 221.846 251.874,228.030 255.634,232.688 253.257 C 240.348 249.349,239.880 232.894,231.643 216.503 C 229.900 213.036,227.607 207.680,226.547 204.600 C 224.515 198.701,214.100 177.413,211.247 173.328 C 198.706 155.373,190.275 148.033,184.397 149.951 M299.829 207.828 C 297.871 209.786,299.244 219.165,303.395 232.200 C 306.846 243.034,307.863 247.593,309.777 260.800 C 312.972 282.847,311.908 294.505,305.397 308.790 C 300.377 319.802,298.668 327.528,300.760 329.757 C 307.704 337.155,331.745 328.112,339.785 315.077 C 346.582 304.058,346.962 286.946,340.767 270.931 C 339.846 268.549,337.962 263.340,336.580 259.355 C 333.800 251.341,332.640 248.828,329.452 243.922 C 328.265 242.095,326.251 238.710,324.975 236.400 C 323.700 234.090,321.003 229.680,318.981 226.600 C 316.960 223.520,314.655 219.830,313.860 218.400 C 310.999 213.256,307.837 210.179,303.392 208.213 C 300.694 207.020,300.642 207.015,299.829 207.828"></path></svg>
